<!--?xml version="1.0" standalone="no"?-->

<svg xmlns="http://www.w3.org/2000/svg" width="300.000000pt" height="300.000000pt" viewBox="0 0 300.000000 300.000000" preserveAspectRatio="xMidYMid meet">
<g transform="translate(0.000000,300.000000) scale(0.100000,-0.100000)" fill="#060606" stroke="none">
<path style="position: relative;" class="node" id="node1" d="M943 2177 c-167 -140 -341 -334 -463 -517 -120 -180 -224 -433 -245
-595 -7 -55 -7 -55 49 30 46 72 196 274 235 319 82 93 211 233 227 248 11 9
30 19 44 23 38 9 125 -52 320 -225 160 -143 241 -221 238 -230 -2 -4 -61 -60
-133 -125 -71 -65 -177 -162 -235 -215 -283 -261 -491 -442 -637 -556 -104
-81 -119 -99 -110 -136 9 -35 155 -198 177 -198 11 0 154 136 357 338 344 344
715 702 728 702 13 0 630 -597 848 -820 170 -174 221 -221 238 -218 14 2 54
40 101 96 62 74 79 99 76 120 -2 20 -30 48 -114 117 -173 139 -305 254 -514
445 -84 76 -167 152 -422 385 -38 34 -68 65 -68 68 0 7 99 103 206 198 230
206 313 265 357 254 57 -15 343 -349 489 -571 74 -113 82 -106 44 42 -78 307
-270 618 -548 890 -133 130 -226 204 -256 204 -14 0 -33 -11 -46 -26 -43 -55
-76 -108 -76 -124 0 -10 45 -57 100 -106 100 -88 117 -113 106 -158 -10 -40
-129 -178 -238 -277 -57 -51 -105 -95 -108 -99 -28 -32 -171 -151 -178 -148
-27 9 -368 325 -428 395 -82 95 -94 115 -94 154 0 34 7 43 105 129 58 51 105
100 105 110 0 16 -33 69 -76 124 -35 43 -63 35 -161 -47z"></path>
</g>
<g transform="translate(0.000000,300.000000) scale(0.100000,-0.100000)" fill="#A1A1A1" stroke="none">


</g>
</svg>